<svg version="1.1" preserveAspectRatio="none" xmlns="http://www.w3.org/2000/svg" width="500" height="500" viewBox="0 0 500 500"><rect width="100%" height="100%" fill="#BE8A62" fill-opacity="1"/><svg viewBox="158.5113 361.6249 317.1911 431.6383" width="244.70635784637275" height="333" x="127.6468px" y="83.5px" xmlns="http://www.w3.org/2000/svg" xmlns:xlink="http://www.w3.org/1999/xlink" preserveAspectRatio="none"><defs></defs><style>.companyName {fill:#F3F0ED;fill-opacity:1;}.icon1 {fill:#F3F0ED;fill-opacity:1;}.icon2 {fill:#F3B340;fill-opacity:1;}.icon3 {fill:#FDCEAC;fill-opacity:1;}.icon3-str {stroke:#FDCEAC;stroke-opacity:1;}.text {fill:#F3F0ED;fill-opacity:1;}</style><g opacity="1" transform="rotate(0 237.8091 361.6249)">
<svg width="158.5956" height="234.0383" x="237.8091" y="361.6249" version="1.1" preserveAspectRatio="none" viewBox="10765.2783203125 1615.435546875 38469.44921875 56769.109375">
  <g transform="matrix(1 0 0 1 0 0)" class="icon1"><defs></defs><g><path class="fil0" d="M32870.56 26790.21c-60.21,-49.66 -89.05,-131.79 -66.91,-211.88 30.02,-108.6 142.4,-172.31 251.01,-142.29 796.98,221.87 1699.96,182.82 2446.87,-98.08 354.5,-133.32 672.12,-320.77 923.74,-560.04 246.28,-234.2 429.77,-518.77 522.36,-851.36 114.31,-410.62 92.13,-899.49 -117.69,-1464.29 -913.08,-1786.89 -2468.51,-1527.39 -3720.18,-1318.47 -699.22,116.71 -1313.12,219.17 -1751.38,-16.04 -118.8,-63.77 -221.8,-150.82 -306.59,-266.58 -80.06,-109.3 -142.52,-243.61 -185.09,-407.64l-0.22 0.06c-20.44,-73.24 -50.14,-132.86 -85.89,-179.72 -35.67,-46.77 -76.67,-80.21 -119.5,-101.25 -58.85,-28.9 -123.39,-36.03 -183.28,-23.23 -50.99,10.89 -98.34,36.7 -135.14,76.15 -39.05,41.88 -67.46,100.41 -78.05,174.78 -17.25,121.2 11.05,279.39 109.06,473.31l0.06 -0.03c225.73,396.63 475.33,606.1 725.69,710.28 249.95,104.01 511.96,106.81 753.16,86.81 4.12,-0.34 8.22,-0.54 12.3,-0.63 273.37,-19.23 578.08,-77.51 896.37,-138.39 1112.05,-212.72 2379.29,-455.12 3419.47,648.79 13.52,14.37 24.54,30.19 33.1,46.91 87.79,150.74 152.87,297.92 197.38,440.52 124.49,398.83 93.91,767.42 -47.31,1084.38 -139.35,312.73 -386.2,570.63 -697.16,753.64 -139.18,81.92 -290.18,148.59 -449,198.17 -591.3,184.57 -1649.08,40.84 -2498.9,-74.63 -295.04,-40.09 -563.84,-76.61 -780.25,-94.13 -857.37,-69.37 -1862.86,-85.78 -2762.88,108.89 -868.03,187.74 -1638.18,572.5 -2071.8,1299.94 -416.33,986.53 -51.69,1790.2 300.2,2565.54 183.83,405.04 364.41,802.94 445.83,1230.6 85.06,446.73 -9.98,725.6 -144.34,1119.85l-11.66 34.2c-229.24,673.72 -473.5,1114.57 -735.47,1417.11 -233.91,270.14 -479,428.86 -738.26,541.19 75.65,465.13 60.29,942.09 -597.49,1717.98 -72.84,86.09 -201.69,96.83 -287.78,23.99 -86.09,-72.84 -96.83,-201.69 -23.98,-287.78 632.37,-745.93 553.89,-1151.51 468.64,-1592.18 -11.11,-57.42 -22.31,-115.34 -32.5,-174.43 -276.99,313.68 -617.36,446.63 -966.39,582.96 -49.42,19.3 -99.04,38.68 -148.47,58.69 184.88,51.02 348.24,114.45 478.61,183.83 99.33,52.98 136.91,176.46 83.94,275.79 -52.98,99.34 -176.46,136.91 -275.79,83.94 -226.06,-120.3 -581.88,-219.93 -981.45,-249.79 -379.5,-28.35 -792.12,7.72 -1160.64,151.14 -357.4,139.08 -675.32,381.2 -880.78,767.3 -127.57,239.74 -213.36,537.71 -240.76,904.5 -8.39,112.58 -106.46,197.04 -219.04,188.66 -112.57,-8.39 -197.04,-106.46 -188.65,-219.04 8.35,-111.85 21.66,-218.65 39.54,-320.59 -139.63,-21.27 -262.25,18.86 -363.06,90.75 -153.57,109.52 -261.9,288.02 -311.35,449.35 -61.21,199.7 67.27,371.12 273.5,494.93 126.98,76.22 280.33,134.9 441.76,173.64 164.27,39.42 335.74,58.1 495.89,53.66 110.05,-3.05 213.4,-16.29 301.68,-40.52 14.57,-6.45 30.03,-11.24 46.16,-14.14 125.42,-42.85 212.56,-111.38 231.95,-208.4 22.07,-110.81 129.8,-182.75 240.62,-160.67 110.81,22.07 182.75,129.8 160.67,240.62 -11.66,58.36 -30.7,112.08 -56.13,161.35 575.96,91.58 781.49,342.18 975.41,578.8 3.37,4.12 6.55,8.33 9.55,12.63 106.73,130.04 211.87,252.46 412.3,309.28 27.44,7.7 51.99,20.66 72.87,37.47 267.64,197.05 240.96,411.52 54.91,635.42 -121.14,145.77 -325.73,287.54 -542.19,428.73 -10.58,6.89 -21.45,14.27 -54.49,36.1 -286.44,189.3 -686.51,453.69 -1123.17,301.48 -106.39,-37.08 -162.58,-153.41 -125.5,-259.8 37.08,-106.39 153.41,-162.58 259.8,-125.5 121.74,42.44 257.34,14.76 389.47,-41.33 -112.92,-19.92 -222.44,-48.94 -324.75,-84.36 -338.64,-117.24 -612.53,-316.46 -692.3,-501.09 -6.84,-15.84 -12.68,-32.15 -17.48,-48.89 -9.41,-32.84 -10.82,-37.45 -12.08,-41.54 -8.73,-28.37 -17.04,-55.37 -20.67,-69.56 -52.29,-204.38 -40.13,-354.29 259.65,-430.97 126.87,-32.44 287.89,-23.25 465.7,-13.1 189.37,10.8 402.54,22.97 555.11,-20.61 -169.96,-176.53 -422.66,-330.82 -1053.73,-331.63 -123.41,35.01 -259.78,53.98 -402.17,57.92 -194.78,5.39 -402.73,-17.18 -601.41,-64.86 -201.53,-48.36 -394.71,-122.65 -556.87,-220 -363.74,-218.35 -582.3,-546.94 -454.16,-964.97 71.89,-234.57 233.15,-496.75 464.83,-661.99 191.5,-136.57 427.9,-209.33 699.78,-155.76 42.01,-124.86 92.05,-240.62 149.09,-347.82 256.72,-482.43 651.11,-783.85 1093.42,-955.97 431.17,-167.79 905.71,-210.61 1338.1,-178.31l11.41 0.88c15.48,-20.77 35.2,-38.93 58.81,-53.05 199.66,-119.14 398.21,-196.69 593.88,-273.12 453.27,-177.04 888.98,-347.23 1122.97,-1058.97l0.12 0.04c31.69,-97.86 132.7,-158.16 235.7,-136.74 110.37,22.96 181.24,131.05 158.28,241.42 -51.16,244.33 -35.96,453.85 -4.57,649.78 176.72,-87.88 344.81,-208.31 505.38,-393.74 195.95,-226.3 383.6,-550.2 565.95,-1028l-15920.83 0 11044.16 22939.28 2667.53 -5540.61 -4531.02 -6969.88c-1.63,0.23 -3.28,0.45 -4.93,0.64 -112.14,13.25 -213.79,-66.92 -227.04,-179.06 -38.18,-321.4 101.77,-453.98 359,-484.55 170.75,-20.29 388.78,27.49 638.92,82.3 456.46,100.03 1039.21,227.71 1378.07,-73.68 532.83,-473.91 1167.42,-895.38 1871.32,-1242.86 635.1,-313.53 1327.09,-566.75 2051.95,-743.73 4.24,-116.26 48.52,-218.37 120.12,-306.78 77.95,-96.24 186.99,-171.63 307.39,-227.72 192.49,-89.68 429.59,-133.5 608.04,-133.49l9.08 -13.36c102.41,-147.67 252.13,-263.76 430,-319.95 177.63,-56.12 381.69,-53.2 592.49,36.75 21.09,9 42.25,18.9 63.47,29.72 364.19,-288.17 740.07,-610.82 1049.66,-1005.71 334.74,-426.97 596.44,-944.31 688.5,-1605.67 15.45,-111.69 118.53,-189.71 230.22,-174.26 111.7,15.45 189.72,118.53 174.27,230.22 -103.33,742.28 -396.59,1322.34 -771.64,1800.72 -368.96,470.61 -812.46,836.76 -1229.85,1162.29 -72.01,56.25 -169.96,56.48 -241.37,7.15l-0.04 0.05c-41.57,-28.83 -82.73,-51.58 -123.1,-68.8 -113.09,-48.26 -219.31,-50.85 -309.51,-22.36 -89.94,28.41 -165.62,87.08 -217.35,161.67 -16.54,23.85 -30.75,49.56 -42.31,76.64 -39.98,93.97 -142.13,142.47 -238.13,117.96l-0.09 0.35c-97.28,-24.75 -317.42,6.09 -499.68,91 -69.51,32.38 -128.4,70.88 -163.48,114.2 -21.36,26.38 -32.61,55.99 -27.63,88.16 1.53,9.9 4.11,20.27 7.76,31.1 3.2,6.94 6.03,14.12 8.46,21.53 25.73,57.73 80.47,127.65 172.89,211.72 83.44,75.93 89.53,205.14 13.59,288.58 -75.93,83.44 -205.14,89.52 -288.58,13.59 -81.41,-74.07 -145.47,-146.38 -194.35,-216.66 -337.85,81.31 -668.38,179.9 -988.98,294.04l1520.02 0c-4.74,-73.52 3.33,-147.62 24.01,-220.31 27.09,-95.15 76.79,-187.89 148.57,-273.24 138.9,-165.13 361.67,-299.21 662.01,-358.84 110.82,-21.63 218.19,50.66 239.82,161.48 21.63,110.81 -50.67,218.18 -161.48,239.81 -203.26,40.36 -346.34,121.97 -428.59,219.75 -32.47,38.6 -54.89,80.34 -67.02,122.96 -10.27,36.1 -12.34,72.82 -6.02,108.39l338.64 0c27.37,-61.41 64.65,-120.86 111.85,-176.97 113.28,-134.68 285.03,-249.93 514.2,-323.11 271.16,-86.61 580.57,-29.18 858.95,22.87 113.36,-546.29 530.38,-909.8 980.86,-1302.38 492.9,-429.55 1030.94,-898.52 1155.49,-1679.75 0.71,-6.42 1.72,-12.87 3.06,-19.32 112.07,-533.12 61.77,-979.61 -100,-1305.01 -74.76,-150.37 -172.81,-273.87 -288.75,-366.69 -114.24,-91.46 -247.59,-154.54 -394.69,-185.46 -252.84,-53.15 -547.99,-11.17 -860.51,144.2 -101.1,49.89 -223.5,8.37 -273.39,-92.73 -49.89,-101.09 -8.37,-223.5 92.73,-273.38 398.11,-197.92 784.48,-249.23 1124.3,-177.79 28.19,5.92 56.04,12.7 83.54,20.3 106.5,-209.76 130.87,-447.05 155.21,-684.34 36.75,-358.16 73.49,-716.32 324.43,-1043.22 -98.17,-8.64 -198.61,-25.19 -301.12,-49.92 -176.21,-42.52 -357.8,-109.06 -543.52,-200.83 -756.05,-373.55 -1273.24,-1238.52 -1573.56,-2228.51 -358.69,-1182.41 -411.64,-2556.89 -191.32,-3464.56 26.48,-109.49 136.72,-176.77 246.21,-150.28 109.49,26.48 176.77,136.72 150.28,246.21 -205.29,845.79 -153.46,2134.8 184.94,3250.31 270.45,891.53 721.17,1663.05 1364.11,1980.72 159.24,78.68 312.46,135.13 458.78,170.44 295.65,71.34 565.65,56.8 801.65,-34.37 57.99,-31.17 119.83,-61.77 185.83,-91.77 232.66,-141.75 428.94,-369.72 578.72,-672.83 86.28,-174.61 156.95,-373.21 210.18,-593.84 1.47,-6.07 3.21,-12 5.18,-17.8 4.46,-14.71 8.73,-29.44 12.92,-44.17 14.3,-68.53 31.06,-138.55 50.46,-210.11l0.85 -2.98c104.02,-524.38 49.02,-1050.11 -87.42,-1521.69 -219.7,-759.35 -642.78,-1369.49 -954.73,-1610.04 -89.18,-68.87 -105.64,-197.01 -36.77,-286.18 68.87,-89.18 197,-105.65 286.18,-36.78 364.07,280.75 852.24,973.47 1097.01,1819.48 152.87,528.35 213.8,1119.95 95.67,1714.51 -1.16,10.25 -3.1,20.54 -5.88,30.8l-1.87 6.98c-12.03,56.89 -25.74,113.8 -41.16,170.66 -106.01,498.62 -60.71,890.3 72.96,1173.63 66.18,140.25 153.06,252.93 252.65,337.75 97.2,82.78 208.78,140.46 326.59,172.4 185.72,50.37 385.03,34.13 565.4,-50.96 101.98,-48.12 223.67,-4.46 271.79,97.53 48.12,101.98 4.45,223.67 -97.53,271.79 -270.32,127.54 -568.82,151.92 -846.78,76.54 -172.08,-46.66 -337.09,-132.64 -483.27,-257.13 -143.79,-122.47 -267.15,-280.74 -358.17,-473.66 -47.19,-100.03 -85.94,-209.61 -114.54,-328.55 -164,251.38 -363.19,449.08 -591.95,586.98 -4.6,2.99 -9.35,5.83 -14.24,8.49 -26.12,15.38 -52.63,29.99 -79.5,43.82 -37.5,19.29 -75.65,37.03 -114.44,53.2 -610.65,340.23 -654.85,769.86 -698.92,1199.51 -27.78,270.83 -55.57,541.68 -187.91,810.8 37.41,24.32 73.72,50.56 108.83,78.68 163.38,130.79 299.47,300.66 400.65,504.18 147.59,296.88 221.89,667.27 197.9,1092.94l16543.3 0 -16397.72 -34058.91 -13986.4 29050.48 9159.46 0c91,-274.32 145.65,-493.08 88.79,-791.73 -71.81,-377.18 -242.9,-754.14 -417.05,-1137.87 -389.35,-857.85 -792.94,-1747.13 -299.11,-2903.63l0.25 0.11c3.37,-7.91 7.28,-15.68 11.74,-23.29 500.32,-851.8 1370.48,-1295.49 2344.9,-1506.24 947.56,-204.95 1992.95,-188.75 2881.19,-116.88 213.48,17.28 494.35,55.45 802.64,97.33 809.54,110 1817.17,246.92 2323.03,89.02 131.17,-40.95 253.68,-94.72 364.26,-159.8 238.98,-140.65 427.09,-335.25 530.88,-568.18 101.9,-228.71 122.62,-499.01 29.73,-796.6 -34.92,-111.87 -85.2,-226.91 -152.4,-344.32 -884.04,-922.55 -2027,-704.1 -3030.71,-512.12 -330.68,63.26 -647.25,123.81 -944.9,144.72l-6.93 0.7c-293.15,24.31 -616.18,18.99 -943.42,-117.19 -326.82,-136 -646.6,-398.82 -923.95,-886.14l0.25 -0.14c-1.46,-2.58 -2.88,-5.19 -4.24,-7.86 -143.75,-280.4 -183.02,-525.1 -154.68,-724.29 23.09,-162.16 90.08,-295.16 183.57,-395.41 95.74,-102.66 218.11,-169.61 349.38,-197.66 145.97,-31.21 303.38,-13.76 447.08,56.81 98.82,48.54 190.05,121.31 264.98,219.55 65.7,86.13 119.3,192.15 154.64,318.83l-0.25 0.07 1.05 3.92c28.74,111.91 69.38,201.01 120.56,270.88 47.09,64.29 104.44,112.71 170.69,148.27 315.09,169.11 864.74,77.37 1490.78,-27.12 1385.3,-231.22 3107.29,-518.65 4155.54,1542.96l-0.3 0.16c3.37,6.63 6.41,13.5 9.1,20.62 247.33,657.69 271.52,1236.57 133.98,1730.62 -113.64,408.21 -336.34,755.09 -634.28,1038.42 -292.6,278.25 -657.28,494.46 -1061.22,646.38 -620.12,233.21 -1336.92,315.68 -2027.65,238.46 799.46,914.63 832.58,1740.28 865.5,2565.88 17.78,445.79 35.57,891.6 190.94,1343 36.64,106.84 -20.26,223.16 -127.1,259.8 -106.84,36.64 -223.17,-20.26 -259.81,-127.1 -173.61,-504.39 -192.67,-982.06 -211.72,-1459.7 -35.03,-878.35 -70.13,-1756.71 -1205.03,-2750.2zm-7480.65 22465.83c17.49,18.36 31.22,39.68 40.75,62.68l5517.62 8487.55 10992.92 -16909.99 -13583.08 0c15.37,19.88 34.01,39.2 55.97,57.67 86.09,72.41 97.19,200.9 24.78,286.99 -72.4,86.08 -200.89,97.18 -286.98,24.78 -112.06,-94.27 -187.5,-206.9 -226.05,-327.62 -4.43,-13.87 -8.36,-27.81 -11.8,-41.82l-135.39 0c-7.69,17.81 -18.06,34.83 -31.19,50.44 -72.41,86.09 -200.9,97.19 -286.99,24.79 -28.52,-24 -54.66,-49.13 -78.43,-75.23l-2673.9 0c-12.17,5.94 -24.32,11.89 -36.44,17.88 -669.98,330.74 -1273.67,731.6 -1780.18,1182.11 -494.75,440.04 -1190.91,287.5 -1736.21,168.01 -133.96,-29.36 -257.19,-56.36 -355.86,-69.57l4590.46 7061.33zm-122.84 559.58l-2744.02 5699.48c-19.35,40.14 -51.88,74.26 -95.13,95.13 -101.54,49 -223.59,6.42 -272.6,-95.13l-11363.01 -23601.57c-17.2,-29.96 -27.03,-64.69 -27.03,-101.71 0,-113.02 91.62,-204.65 204.64,-204.65l6777.32 0c4813.19,-9997.24 9626.48,-19994.43 14439.56,-29991.73 5682.78,11803.09 11365.35,23606.27 17047.93,35409.45l-17244.52 0c-4.19,22.08 -8.6,44.26 -13.3,66.57l-0.39 1.79c-148,926.43 -743.6,1445.59 -1289.27,1921.12 -442.2,385.36 -847.25,738.35 -870.36,1242 -4.85,112.57 -100.06,199.9 -212.64,195.05 -7.01,-0.31 -13.93,-0.96 -20.73,-1.95l-0.05 0.34c-63.79,-9.37 -139.77,-23.58 -218.27,-38.26 -231.8,-43.34 -489.72,-91.56 -663.25,-36.14 -93.73,29.94 -170.88,68.13 -231.76,111.58l13847.35 0 0 0.64c38.15,-0.03 76.74,10.61 111.12,32.93 94.48,61.37 121.32,187.71 59.95,282.19l-11367.3 17485.9c-15.31,24.53 -36.07,46.18 -61.91,62.96 -94.48,61.37 -220.83,34.53 -282.19,-59.95l-5510.14 -8476.04zm-3543 -8599.71c112.58,0 203.84,91.27 203.84,203.85 0,112.58 -91.26,203.84 -203.84,203.84 -286.66,0.95 -550.9,-115.42 -806.24,-227.87 -388.13,-170.93 -748.44,-329.6 -997.35,274.85 -42.82,104.19 -162,153.94 -266.19,111.12 -104.19,-42.82 -153.94,-162.01 -111.12,-266.19 408.46,-991.93 952.87,-752.18 1539.34,-493.9 217.55,95.81 442.69,194.96 641.56,194.3zm-209.55 -806.49c112.58,0 203.84,91.27 203.84,203.85 0,112.58 -91.26,203.84 -203.84,203.84 -286.66,0.95 -550.9,-115.42 -806.24,-227.87 -388.13,-170.93 -748.44,-329.6 -997.34,274.85 -42.83,104.19 -162.01,153.94 -266.2,111.12 -104.19,-42.82 -153.94,-162.01 -111.12,-266.19 408.46,-991.93 952.87,-752.18 1539.34,-493.9 217.55,95.81 442.69,194.96 641.56,194.3zm12515.18 -8881.79c-83,-76.37 -88.37,-205.58 -11.99,-288.58 76.37,-82.99 205.58,-88.36 288.57,-11.99 114.81,105.83 215.55,168.24 303.22,196.43 89.7,28.85 165.9,18.47 228.83,-17.52 76.09,-43.52 141.24,-122.73 193.62,-219.19 80.69,-148.58 128.09,-331.99 140.31,-497.86 7.94,-112.58 105.66,-197.4 218.23,-189.45 112.58,7.94 197.4,105.66 189.46,218.23 -16.04,217.81 -80.13,462.05 -189.87,664.14 -86.77,159.77 -202.97,295.72 -348.71,379.07 -158.9,90.88 -345.08,119.1 -556.58,51.09 -142.62,-45.86 -294.91,-136.71 -455.09,-284.37zm-376.48 453.86c-51.66,-100.22 -12.28,-223.34 87.93,-274.99 100.21,-51.66 223.34,-12.28 274.99,87.93 183.25,353.74 381.95,462.56 572.22,445.86 216.56,-19 447.83,-179.38 644.06,-346.54 85.65,-73.29 214.49,-63.27 287.78,22.38 73.29,85.65 63.27,214.5 -22.38,287.79 -248.55,211.73 -552.06,415.8 -874.28,444.06 -348.52,30.59 -692.66,-130.5 -970.32,-666.49zm-10038.31 3845.94c2.84,6.68 5.48,13.46 7.89,20.32 27.7,78.99 25.99,169.79 -11.69,253.66 -37.81,84.14 -104.68,145.87 -182.19,177.64 -72.18,29.57 -153.51,33.53 -229.85,6.1l-2.33 0 -20.46 -9.2c-83.05,-37.32 -142.17,-106.1 -170.57,-187.11 -25.24,-71.97 -26.06,-153.74 2.5,-231.14l0 -2.06 6.01 -13.39c-77.92,53.61 -149.33,142.05 -210.39,281.9 -45.03,103.31 -165.29,150.55 -268.6,105.52 -103.31,-45.03 -150.55,-165.29 -105.52,-268.6 327.94,-751.09 792.02,-643.73 1229.01,-542.63 179.88,41.62 352.74,81.6 449.41,11.14 90.95,-66.22 218.37,-46.18 284.59,44.76 66.22,90.95 46.18,218.37 -44.76,284.59 -233.55,170.23 -478.54,126.62 -733.05,68.5zm-184.76 87.48c-10.4,-29.66 -31.49,-54.62 -60.79,-67.89l-0.29 -0.13c-29.77,-13.38 -62.73,-12.66 -91.94,-0.69 -30.91,12.66 -57.72,37.49 -73.19,71.49l-0.28 0.64c-15.56,34.61 -16.44,71.58 -5.3,103.35 10.4,29.66 31.49,54.63 60.79,67.89l0.28 0.13c29.77,13.38 62.74,12.66 91.95,0.69 31.09,-12.74 58.05,-37.79 73.47,-72.12 15.55,-34.61 16.44,-71.58 5.3,-103.36zm367.17 2734.51c68.06,-52.11 124.85,-102 163.27,-148.23 11.86,-14.26 19.05,-26.71 19.03,-36.32 -182.47,-60.9 -304.38,-149.35 -405.24,-249.92 -251.89,139.46 -577.54,120.87 -860.83,104.7 -112.63,-6.43 -216.91,-12.38 -289.8,-6.23l12.71 41.16 0.05 -0.03c-0.01,-0.07 -0.01,-0.08 0.03,-0.01 37.14,85.97 214.77,196.08 449.28,277.27 252.13,87.28 554.98,126.6 813.51,52.55 33.28,-9.54 66.01,-21.13 97.96,-34.93l0.03 -0.01zm-1360.67 -294.21c0.18,0.65 -0.09,-0.38 -0.14,-0.66l-0.05 0.03 0.19 0.63zm-2851.72 1297.93c5.01,3.88 9.79,7.95 14.34,12.18l7.77 0.49c-7.5,-3.06 -36,-23.41 -22.11,-12.67zm14.34 12.18c76.4,70.99 87.43,189.85 22.43,274.01 -68.87,89.17 -197,105.64 -286.18,36.77 -100.24,-77.51 -142.93,-200.77 -134.43,-335.76 3.86,-61.56 18.6,-126.61 43.31,-189.74 23.72,-60.58 57.41,-121.08 100.26,-176.5 114.15,-147.64 291.04,-257.67 517.7,-243.41 437.67,27.53 828.28,260.48 1228.15,498.95 536.49,319.94 1092.1,651.28 1721.95,372.4 103.31,-45.47 223.93,1.41 269.4,104.72 45.47,103.31 -1.41,223.93 -104.72,269.4 -821.48,363.73 -1469.94,-22.98 -2096.07,-396.38 -356.26,-212.47 -704.27,-420.01 -1044.29,-441.4 -71.08,-4.47 -129.55,33.9 -169.16,85.13 -17.92,23.18 -32.3,49.19 -42.7,75.77 -9.41,24.04 -14.9,46.86 -16.14,66.64 -0.03,0.41 -0.67,0.33 -1.74,-0.11l-7.77 -0.49zm5879.4 -3237.23c-91.83,-65.78 -112.94,-193.56 -47.16,-285.39 65.77,-91.82 193.55,-112.94 285.38,-47.16 276.69,198.16 447.61,418.83 541.24,646.23 109.99,267.16 110.65,536.73 48.78,787.5 -59.4,240.77 -176.07,462.14 -306.75,644.61 -190.44,265.93 -424.76,460.5 -559.38,515.92 -104.19,42.83 -223.38,-6.92 -266.2,-111.11 -42.82,-104.19 6.93,-223.38 111.12,-266.2 79.43,-32.7 235.5,-172.38 381.91,-376.82 104.82,-146.35 197.52,-320.37 242.8,-503.92 42.82,-173.55 43.52,-357.32 -29.59,-534.9 -65.45,-158.94 -191.85,-318.16 -402.15,-468.76zm6950.18 -3604.11c-4.73,2.85 -9.48,5.69 -14.24,8.49l14.24 -8.49z"></path></g></g>
</svg>
</g><g opacity="1" transform="rotate(0 223.8654 771.6632)">
<svg width="186.4829" height="21.6" x="223.8654" y="771.6632" version="1.1" preserveAspectRatio="none" viewBox="1.48 -29.68 257.92 29.88">
  <g transform="matrix(1 0 0 1 0 0)" class="text"><path id="id-6izo4zJp11" d="M40.16-28L43-28L33.56 0L30.44 0L22.24-23.88L14 0L10.92 0L1.48-28L4.52-28L12.60-3.92L20.96-28L23.72-28L31.96-3.80L40.16-28Z M56.80 0.20Q53.76 0.20 51.32-1.18Q48.88-2.56 47.48-5Q46.08-7.44 46.08-10.52L46.08-10.52Q46.08-13.60 47.48-16.04Q48.88-18.48 51.32-19.84Q53.76-21.20 56.80-21.20L56.80-21.20Q59.84-21.20 62.28-19.84Q64.72-18.48 66.10-16.04Q67.48-13.60 67.48-10.52L67.48-10.52Q67.48-7.44 66.10-5Q64.72-2.56 62.28-1.18Q59.84 0.20 56.80 0.20L56.80 0.20ZM56.80-2.32Q59.04-2.32 60.82-3.34Q62.60-4.36 63.60-6.24Q64.60-8.12 64.60-10.52L64.60-10.52Q64.60-12.92 63.60-14.80Q62.60-16.68 60.82-17.70Q59.04-18.72 56.80-18.72L56.80-18.72Q54.56-18.72 52.78-17.70Q51.00-16.68 49.98-14.80Q48.96-12.92 48.96-10.52L48.96-10.52Q48.96-8.12 49.98-6.24Q51.00-4.36 52.78-3.34Q54.56-2.32 56.80-2.32L56.80-2.32Z M78-16.92Q79-19.04 80.98-20.12Q82.96-21.20 85.88-21.20L85.88-21.20L85.88-18.44L85.20-18.48Q81.88-18.48 80-16.44Q78.12-14.40 78.12-10.72L78.12-10.72L78.12 0L75.28 0L75.28-21.04L78-21.04L78-16.92Z M109.28 0L100.80-10.56L95.84-6L95.84 0L93.00 0L93.00-29.68L95.84-29.68L95.84-9.56L108.40-21.04L111.92-21.04L102.92-12.44L112.76 0L109.28 0Z M151.32-25.44L135.08-25.44L135.08-14.44L149.56-14.44L149.56-11.88L135.08-11.88L135.08 0L132.12 0L132.12-28L151.32-28L151.32-25.44Z M165.36-21.20Q169.48-21.20 171.68-19.14Q173.88-17.08 173.88-13.04L173.88-13.04L173.88 0L171.16 0L171.16-3.28Q170.20-1.64 168.34-0.72Q166.48 0.20 163.92 0.20L163.92 0.20Q160.40 0.20 158.32-1.48Q156.24-3.16 156.24-5.92L156.24-5.92Q156.24-8.60 158.18-10.24Q160.12-11.88 164.36-11.88L164.36-11.88L171.04-11.88L171.04-13.16Q171.04-15.88 169.52-17.30Q168-18.72 165.08-18.72L165.08-18.72Q163.08-18.72 161.24-18.06Q159.40-17.40 158.08-16.24L158.08-16.24L156.80-18.36Q158.40-19.72 160.64-20.46Q162.88-21.20 165.36-21.20L165.36-21.20ZM164.36-2.04Q166.76-2.04 168.48-3.14Q170.20-4.24 171.04-6.32L171.04-6.32L171.04-9.76L164.44-9.76Q159.04-9.76 159.04-6L159.04-6Q159.04-4.16 160.44-3.10Q161.84-2.04 164.36-2.04L164.36-2.04Z M189.24 0.20Q186.68 0.20 184.34-0.54Q182-1.28 180.68-2.40L180.68-2.40L181.96-4.64Q183.28-3.60 185.28-2.94Q187.28-2.28 189.44-2.28L189.44-2.28Q192.32-2.28 193.70-3.18Q195.08-4.08 195.08-5.72L195.08-5.72Q195.08-6.88 194.32-7.54Q193.56-8.20 192.40-8.54Q191.24-8.88 189.32-9.20L189.32-9.20Q186.76-9.68 185.20-10.18Q183.64-10.68 182.54-11.88Q181.44-13.08 181.44-15.20L181.44-15.20Q181.44-17.84 183.64-19.52Q185.84-21.20 189.76-21.20L189.76-21.20Q191.80-21.20 193.84-20.66Q195.88-20.12 197.20-19.24L197.20-19.24L195.96-16.96Q193.36-18.76 189.76-18.76L189.76-18.76Q187.04-18.76 185.66-17.80Q184.28-16.84 184.28-15.28L184.28-15.28Q184.28-14.08 185.06-13.36Q185.84-12.64 187-12.30Q188.16-11.96 190.20-11.60L190.20-11.60Q192.72-11.12 194.24-10.64Q195.76-10.16 196.84-9Q197.92-7.84 197.92-5.80L197.92-5.80Q197.92-3.04 195.62-1.42Q193.32 0.20 189.24 0.20L189.24 0.20Z M215.24-3.32L216.24-1.28Q215.44-0.56 214.26-0.18Q213.08 0.20 211.80 0.20L211.80 0.20Q208.84 0.20 207.24-1.40Q205.64-3 205.64-5.92L205.64-5.92L205.64-18.64L201.88-18.64L201.88-21.04L205.64-21.04L205.64-25.64L208.48-25.64L208.48-21.04L214.88-21.04L214.88-18.64L208.48-18.64L208.48-6.08Q208.48-4.20 209.42-3.22Q210.36-2.24 212.12-2.24L212.12-2.24Q213-2.24 213.82-2.52Q214.64-2.80 215.24-3.32L215.24-3.32Z M241-10.52L240.96-9.64L223.36-9.64Q223.60-6.36 225.88-4.34Q228.16-2.32 231.64-2.32L231.64-2.32Q233.60-2.32 235.24-3.02Q236.88-3.72 238.08-5.08L238.08-5.08L239.68-3.24Q238.28-1.56 236.18-0.68Q234.08 0.20 231.56 0.20L231.56 0.20Q228.32 0.20 225.82-1.18Q223.32-2.56 221.92-5Q220.52-7.44 220.52-10.52L220.52-10.52Q220.52-13.60 221.86-16.04Q223.20-18.48 225.54-19.84Q227.88-21.20 230.80-21.20L230.80-21.20Q233.72-21.20 236.04-19.84Q238.36-18.48 239.68-16.06Q241-13.64 241-10.52L241-10.52ZM230.80-18.76Q227.76-18.76 225.70-16.82Q223.64-14.88 223.36-11.76L223.36-11.76L238.28-11.76Q238-14.88 235.94-16.82Q233.88-18.76 230.80-18.76L230.80-18.76Z M251.52-16.92Q252.52-19.04 254.50-20.12Q256.48-21.20 259.40-21.20L259.40-21.20L259.40-18.44L258.72-18.48Q255.40-18.48 253.52-16.44Q251.64-14.40 251.64-10.72L251.64-10.72L251.64 0L248.80 0L248.80-21.04L251.52-21.04L251.52-16.92Z"/></g>
</svg>
</g><g opacity="1" transform="rotate(0 158.5113 635.6632)">
<svg width="317.1911" height="120" x="158.5113" y="635.6632" version="1.1" preserveAspectRatio="none" viewBox="1.32 -28 75.28000000000002 28.48">
  <g transform="matrix(1 0 0 1 0 0)" class="companyName"><path id="id-D6z1nYkh3" d="M5.92-25.92Q4.16-25.92 3-25.24Q1.84-24.56 1.32-23.52L1.32-23.52L1.88-27.52L20.84-27.52L21.40-23.52Q20.88-24.56 19.72-25.24Q18.56-25.92 16.80-25.92L16.80-25.92L12.80-25.92L12.80-3.72Q12.80-2.12 13.20-1.28Q13.60-0.44 14.08-0.16Q14.56 0.12 14.56 0L14.56 0L8.20 0Q8.20 0.12 8.68-0.16Q9.16-0.44 9.54-1.26Q9.92-2.08 9.92-3.72L9.92-3.72L9.92-25.92L5.92-25.92Z M54.84 0L48.64 0Q49.12-0.08 49.68-0.86Q50.24-1.64 50.24-3.76L50.24-3.76L50.24-23.76L39.76 0.44L29.12-23.72L29.12-3.96Q29.12-1.80 29.82-0.94Q30.52-0.08 31.08 0L31.08 0L25.16 0Q25.76-0.08 26.48-0.90Q27.20-1.72 27.20-3.96L27.20-3.96L27.20-24Q27.20-25.92 26.52-26.64Q25.84-27.36 25.16-27.52L25.16-27.52L30.56-27.52L40.36-5.16L50-27.52L54.84-27.52Q54.32-27.44 53.72-26.68Q53.12-25.92 53.12-23.88L53.12-23.88L53.12-3.60Q53.12-1.60 53.72-0.84Q54.32-0.08 54.84 0L54.84 0Z M68.28 0.48Q66.20 0.48 64.28-0.10Q62.36-0.68 60.84-1.72L60.84-1.72L60.84-6.56Q61.88-3.88 64.02-2.50Q66.16-1.12 68.48-1.12L68.48-1.12Q70.80-1.12 72.36-2.66Q73.92-4.20 73.92-6.48L73.92-6.48Q73.92-8 73.30-9.08Q72.68-10.16 71.32-11.10Q69.96-12.04 67.48-13.20L67.48-13.20Q64.00-14.80 62.42-16.54Q60.84-18.28 60.84-20.76L60.84-20.76Q60.84-22.88 61.86-24.54Q62.88-26.20 64.62-27.10Q66.36-28 68.44-28L68.44-28Q70.24-28 71.96-27.50Q73.68-27 75.16-26.08L75.16-26.08L75.16-21.76Q74.20-23.96 72.26-25.18Q70.32-26.40 68.32-26.40L68.32-26.40Q66.04-26.40 64.64-24.92Q63.24-23.44 63.24-21.40L63.24-21.40Q63.24-19.92 64.08-18.86Q64.92-17.80 66.14-17.08Q67.36-16.36 69.56-15.32L69.56-15.32Q71.80-14.24 73.24-13.32Q74.68-12.40 75.64-10.92Q76.60-9.44 76.60-7.32L76.60-7.32Q76.60-4.92 75.46-3.16Q74.32-1.40 72.42-0.46Q70.52 0.48 68.28 0.48L68.28 0.48Z"/></g>
</svg>
</g></svg></svg>